<svg width="900" xmlns="http://www.w3.org/2000/svg" height="900" fill="none"><g data-testid="Board"><defs><clipPath id="a" class="frame-clip frame-clip-def"><rect rx="0" ry="0" width="900" height="900"/></clipPath></defs><g clip-path="url(#a)"><g class="fills"><rect width="900" height="900" class="frame-background" style="fill: rgb(255, 255, 255); fill-opacity: 0;" ry="0" rx="0" fill="none"/></g><g data-testid="Logo" class="frame-children"><g data-testid="Background"><rect rx="280" ry="280" width="900" height="900" style="fill: rgb(31, 31, 31); fill-opacity: 1;" class="fills"/><g class="strokes"><g class="inner-stroke-shape"><defs><clipPath id="c"><use href="#b"/></clipPath><rect rx="280" ry="280" x="0" y="0" width="900" height="900" id="b" style="fill: none; stroke-width: 180; stroke: rgb(24, 24, 24); stroke-opacity: 1;"/></defs><use href="#b" clip-path="url('#c')"/></g></g></g><g data-testid="Image" style="fill: rgb(0, 0, 0);"><path d="M441.827 265.589c4.27-2.535 9.474-2.535 13.61 0l145.714 88.602c3.469 2.135 5.604 6.005 5.604 10.008L448.632 470.516 290.375 365.533v-1.334c0-4.003 2.135-7.873 5.604-9.874l145.848-88.736Z" style="fill: rgb(243, 192, 123);" class="fills" data-testid="svg-path"/><path d="m448.578 453.787 151.585-92.072a4.386 4.386 0 0 1 4.407-.046 4.386 4.386 0 0 1 2.213 3.809V530.14a23.113 23.113 0 0 1-2.957 11.323 23.112 23.112 0 0 1-8.119 8.425l-141.976 86.201a3.645 3.645 0 0 1-1.163.402 3.571 3.571 0 0 1-1.107.146 11.944 11.944 0 0 1-4.661.357 11.955 11.955 0 0 1-4.44-1.464h.08l-31.971-144.999 38.109-36.744Z" style="fill: rgb(255, 206, 124);" class="fills" data-testid="svg-path"/><path d="M448.632 632.274V453.868L297.18 361.796c-3.069-1.868-6.805.267-6.805 3.737v164.661c0 8.14 4.27 15.612 11.075 19.749l141.044 85.667c2.669 1.735 6.138-.267 6.138-3.336Z" style="fill: rgb(225, 151, 71);" class="fills" data-testid="svg-path"/><path d="M430.484 594.378v-26.154a8.853 8.853 0 0 0-4.136-7.473L388.985 538.2c-2.535-1.467-5.738.267-5.738 3.203v26.154a8.851 8.851 0 0 0 4.137 7.472l37.363 22.551c2.535 1.468 5.737-.267 5.737-3.202Z" style="fill: rgb(211, 211, 211);" class="fills" data-testid="svg-path"/><path d="M393.922 457.872V397.026l-43.767-2.937v42.167c0 1.334.667 2.668 1.868 3.469l35.761 21.75c2.669 1.468 6.138-.4 6.138-3.603Z" style="fill: rgb(140, 85, 67);" class="fills" data-testid="svg-path"/><path d="m508.412 297.881-158.257 96.208 43.767 26.688 158.257-96.075-43.767-26.821Z" style="fill: rgb(165, 105, 83);" class="fills" data-testid="svg-path"/></g></g></g></g></svg>